<?xml version="1.0" standalone="no"?>
<!DOCTYPE svg PUBLIC "-//W3C//DTD SVG 1.1//EN" "http://www.w3.org/Graphics/SVG/1.1/DTD/svg11.dtd">
<svg xmlns="http://www.w3.org/2000/svg">
<metadata>Copyright (C) 2015 by original authors @ fontello.com</metadata>
<defs>
<font id="fontello" horiz-adv-x="1000" >
<font-face font-family="fontello" font-weight="400" font-stretch="normal" units-per-em="1000" ascent="850" descent="-150" />
<missing-glyph horiz-adv-x="1000" />
<glyph glyph-name="calculator" unicode="&#xe800;" d="m297 347c-10 0-18 8-18 18v287c0 10 8 18 18 18 10 0 18-8 18-18v-287c0-10-8-18-18-18l0 0z m143 144h-287c-10 0-18 8-18 17 0 10 8 18 18 18h287c10 0 18-8 18-18 0-9-8-17-18-17l0 0z m-29-271l-203-203c-4-3-8-5-13-5-4 0-9 2-12 5-7 7-7 19 0 26l203 203c7 7 18 7 25 0 7-7 7-19 0-26l0 0z m0-203c-3-3-8-5-13-5-4 0-9 2-12 5l-203 203c-7 7-7 19 0 26 7 7 18 7 25 0l203-203c7-7 7-19 0-26l0 0z m442 474h-287c-10 0-18 8-18 17 0 10 8 18 18 18h287c10 0 18-8 18-18 0-9-8-17-18-17l0 0z m0-324h-287c-10 0-18 8-18 18 0 10 8 18 18 18h287c10 0 18-8 18-18 0-10-8-18-18-18l0 0z m0-107h-287c-10 0-18 8-18 18 0 10 8 18 18 18h287c10 0 18-8 18-18 0-10-8-18-18-18l0 0z m-848-195v970h990v-970h-990l0 0z m42 927l0-885h906l1 885h-907l0 0z" horiz-adv-x="1000" />
<glyph glyph-name="eye" unicode="&#xe801;" d="m0 341l0 18q0 1 2 3l0 4q70 130 206 213t290 83 291-83 205-215l1-1 1-1 0-4q2-6 2-8t-2-8l0-4-1-1-1-1q-68-132-205-215t-291-83-290 83-206 215l0 2q-2 2-2 3z m66 9q65-113 183-182t250-68 250 68 183 182q-65 113-183 182t-250 68-250-68-183-182z m213 0q0 90 65 154t154 65 154-65 65-154-65-154-154-65-154 65-65 154z m32 0q0-78 54-133t133-54 133 54 55 133-55 133-133 55-133-55-54-133z m62 0q0 53 37 89t88 36q16 0 16-16t-16-15q-37 0-65-28t-29-66q0-16-15-16t-16 16z" horiz-adv-x="998" />
<glyph glyph-name="downarrow" unicode="&#xe802;" d="m995 590c0 7-3 14-8 19-11 11-28 11-39 0l-448-447-447 447c-11 11-29 11-39 0-11-10-11-28 0-38l486-487 487 487c5 5 8 12 8 19l0 0z" horiz-adv-x="1000" />
<glyph glyph-name="star" unicode="&#xe803;" d="m795-121c-3 0-6 1-9 3l-284 149-283-149c-7-4-15-4-22 1-6 5-9 13-8 20l54 317-229 225c-6 5-8 13-5 21 2 7 8 13 16 14l317 46 142 288c7 15 30 15 37 0l142-288 316-46c8-1 15-7 17-14 2-8 0-16-5-21l-229-225 54-317c1-7-2-15-9-20-3-3-7-4-12-4l0 0z m-293 196c4 0 7 0 10-2l256-135-49 286c-1 7 1 14 6 18l207 203-286 42c-7 1-13 5-16 11l-128 260-128-260c-3-6-8-10-15-11l-286-42 207-203c5-4 7-11 6-18l-49-286 256 135c3 2 6 2 9 2l0 0z" horiz-adv-x="1000" />
<glyph glyph-name="table" unicode="&#xe804;" d="m5-135v970h990v-970h-990l0 0z m42 927l0-885h906l1 885h-907l0 0z m198-715l9-56-50 26-50-26 10 56-41 39 56 8 25 51 25-51 56-8-40-39 0 0z m594-18h-485c-11 0-19 9-19 20 0 10 8 19 19 19h485c11 0 20-9 20-19 0-11-9-20-20-20l0 0z m-594 270l9-56-50 27-50-27 10 56-41 40 56 8 25 50 25-50 56-8-40-40 0 0z m594-17h-485c-11 0-19 8-19 19 0 11 8 19 19 19h485c11 0 20-8 20-19 0-11-9-19-20-19l0 0z m-594 269l9-55-50 26-50-26 10 55-41 40 56 8 25 51 25-51 56-8-40-40 0 0z m594-17h-485c-11 0-19 8-19 19 0 11 8 20 19 20h485c11 0 20-9 20-20 0-11-9-19-20-19l0 0z" horiz-adv-x="1000" />
<glyph glyph-name="home" unicode="&#xe805;" d="m777-89h-570c-58 0-105 47-105 105v333c0 20 6 39 16 56 18 0 38 0 54 2-19-13-31-34-31-58v-331c0-38 30-69 68-69h566c38 0 68 31 68 69v331c0 26-14 49-36 61 17-1 36 0 53 3 14-18 22-40 22-64v-333c0-58-47-105-105-105l0 0z m-155 12l-5-12h-253l-4 12c-3 8-10 28-10 28v99c0 38 32 69 72 69h138c40 0 74-31 74-69v-99c0 0-10-20-12-28l0 0z m-24 125c0 19-16 35-36 35h-140c-19 0-36-14-36-33l0-104h212v102l0 0z m393 434l-4-12c-15-47-59-78-108-78-12 0-24 2-36 5l-343 113-343-113c-11-3-23-5-36-5-49 0-93 31-108 78l-4 12c-20 60 13 125 73 144l378 124c13 5 27 6 41 6 0 0 2 0 4 0 12 0 24-2 35-6l378-124c60-19 93-84 73-144l0 0z m-84 110l-378 124c-8 3-16 4-24 4l-4 0-5 0c-9 0-17-1-25-4l-378-124c-41-13-64-58-50-99l4-12c11-32 40-53 74-53 9 0 17 1 25 3l354 117 354-117c8-2 16-3 25-3 34 0 64 21 74 53l4 12c14 41-9 86-50 99l0 0z m-82 49c-7 1-13 3-20 5v73c0 19-15 34-34 34h-3c-19 0-34-15-34-34v-47c-10 4-19 10-28 16-3 2-6 3-8 4v27c0 39 31 70 70 70h3c39 0 70-31 70-70v-85c-5 3-10 6-16 7l0 0z" horiz-adv-x="1000" />
<glyph glyph-name="me" unicode="&#xe806;" d="m504 221c-116 0-211 95-211 211v194c0 116 95 211 211 211 117 0 212-95 212-211v-194c0-116-95-211-212-211l0 0z m176 405c0 96-79 175-176 175-96 0-175-79-175-175v-194c0-96 79-175 175-175 97 0 176 79 176 175v194l0 0z m221-462l-7-7c-13 16-27 33-45 49-23 21-49 41-82 57-57-89-156-144-263-144-106 0-205 55-262 144-165-83-196-242-201-296h687c-2-6-4-12-4-18 0-7 2-12 4-18h-707c-4 0-9 1-12 5-4 3-6 8-6 13 0 2 3 247 239 354 8 4 18 1 23-7 49-87 140-141 239-141 99 0 191 54 240 141 4 8 15 11 23 7 69-31 118-75 153-120l-19-19 0 0z m22-152h58v-28h-67v-38h67v-28h-67v-55h-35v55h-70v28h70v38h-70v28h60l-73 125h39c34-62 55-101 62-118h1c2 7 9 21 20 42l42 76h37l-74-125 0 0z" horiz-adv-x="1000" />
<glyph glyph-name="leftarrow" unicode="&#xe807;" d="m739-143c7 0 14 3 19 8 11 11 11 28 0 39l-446 446 446 446c11 11 11 28 0 39-11 11-28 11-39 0l-485-485 485-485c5-5 13-8 20-8l0 0z" horiz-adv-x="1000" />
<glyph glyph-name="rightarrow" unicode="&#xe808;" d="m261-145c7 0 14 3 19 8l487 487-487 487c-11 11-28 11-39 0-10-11-10-28 0-39l448-448-448-448c-10-11-10-28 0-39 6-5 13-8 20-8l0 0z" horiz-adv-x="1000" />
<glyph glyph-name="uparrow" unicode="&#xe809;" d="m995 111c0 7-3 14-8 20l-487 487-486-487c-11-11-11-28 0-39 10-11 28-11 39 0l447 448 448-448c11-11 28-11 39 0 5 5 8 12 8 19l0 0z" horiz-adv-x="1000" />
<glyph glyph-name="purse" unicode="&#xe80a;" d="m444 767l-2 2c0 0-1 0-2 0l-14 10c0 2 1 5 2 7l0 1c-1-2-2-3-2-5l-2 9-12 15 179 31 12-67 2-13c4 2 7 3 11 4 1 4 1 8 3 12 2 1 5 2 8 3 2 8 4 16 7 24 21-45 34-77 87-85 20-3 29 5 46-15 17-20 10-62 49-52-26-34-56-66-87-95 0-1 0-1 1-1 0-1 0-2 0-3 0 0 0 0 0 0 0 0 0-1 0-1 0 0 0 0 0 0-1-3-1-7-2-10 0 0-1-1-1-1-1-3-2-5-3-8-1 0-1-1-1-1-6-9-14-16-23-23-1 0-1-1-2-1-3-2-5-4-8-6-1 0-2-1-3-1-3-2-6-4-10-6 0 0 0 0 0 0-4-3-8-5-11-7-13-10-26-20-35-28 0 0 1-1 1-1 1-1 2-1 3-1h0c0 0 1 0 1 0 0-1 0-1 0-1 0 0 0 1 0 1 0 0 4-4 6-5 1-1 2-2 3-2 1-1 1-1 2-1h1c0 0 0-1 0-1 0 0 0 0 1 0-1 0-1 0-1 0 0 0 4-4 6-5 1-1 2-2 3-3 1 0 2-1 2-1h1l0 0c0 0 0 0 0-1 0 1 0 1 0 1 0 0 4-4 6-6 1 0 2-1 2-2 1-1 2-1 3-1l0-1c0 0 0 0 1 0 0 0-1 0-1 0 0 1 4-4 5-6 1 0 2-1 3-3 1 0 2-1 3-1 0 0 0 0 0 0 0 0 0-1 0-1 0 1 0 1 0 1 0 0 3-5 5-6 1-1 2-2 3-3 0-1 1-1 2-1l0-1c0 0 0 0 1-1 0 1-1 1-1 1 0 0 3-5 5-6 1-1 2-2 2-3 1-1 2-1 3-2l0 0c0 0 0-1 0-1 0 0 0 1 0 1 0 0 1-1 2-3 45-37 89-89 108-153 14-51 12-108 0-158 0-1 1-1 1-1 0-1 0-1 0-1 0 0 0 0 0 0 0 0 1 2 1 3 0 0 0-5 1-7 1-2 1-4 1-7 0 0 0-1 1-2 0 0 0 0 1 0 0 0 0 0 0 0 0 0 0 2 0 3 0 0 1-6 2-8 0-1 1-3 1-6 0 0 0-1 1-2 0 0 1 0 1 0 0 0 0 0 0 0l0 3c0 0 1-5 2-7 1-1 1-2 1-3 1-1 2-1 3-2l0 0c0 0 0 0 0-1 0 0 0 0 0-1l0 2c0 0 2-5 3-7 0 0 0 0 0 0 1-1 2-1 3-1 0 0 0 0 0 0l1-3c0 0 0 0 0-1 0 0 1 0 1-1l0 2c0 0 2-5 4-6 0-1 1-1 2-1 0 0 1 0 1 0l1-3c0 0 0 0 1 0 0 0 0-1 0-1l0 1c0 0 3-4 5-5 1-1 1-1 2-2 1-1 2-1 3-1h0c0 0 0 0 0 0 1-1 1-1 1-1 0 0 0 1-1 1 0 0 5-4 6-6 1 0 3-1 3-2 1-1 2-1 3-1 0 0 0 0 1 0 0-1 0-1 0-1 0 0 0 1 0 1 0 0 4-5 5-6 1-1 2-2 3-3 1-1 2-1 3-1 0 0 0-1 1-1 0 0 0 0 0 0 0 0-1 0-1 1 0 0 4-5 5-7 1-1 2-2 3-4 1-1 1-1 2-1 0-1 1-1 1-2 0 0 0 1-1 1 1 1 3-5 4-8 1-1 2-3 2-5 0-1 1-2 1-2 0 0 0-1 0-2 1 0 1 1 1 2 0 0 0-2 0-4 0-2 0-5 0-6l0 0c0-2-1-4-2-6 0-1 0-1 0-2l0-1c0 0 0 0-1-2 1 1 1 2 2 2 0 0-1-1-2-3-1-2-3-4-4-5 0-1-2-3-3-4-1-1-1-1-1-2-1 0-1-1-2-1 1 0 2 0 2 1 0-1-5-4-7-6-1-1-3-2-5-2 0-1-1-2-1-3 0 0 0 0 0 0 0 0-1 0-1 0 0 0 1 0 1 0 0 0-5-2-7-3-1-1-3-1-5-2 0 0-1-1-2-2h0c0 0 0 0 0 0 0 0 0 0-1 0 1 0 1 0 2 0 0 0-6-2-8-2-1-1-2-2-4-2-1 0-2-1-2-2l-1 0c0 0 0 0 0 0 0 0 1 0 1 0 0 0-3 0-5-1-6-3-11-6-25-10-14-4-92-18-125-20-28-2-251-45-473-16 0 0-1 0-1 0 0 0 0 0-1 0-1 0-2 0-3 1-2 0-3 2-4 3-1 0-1 1-2 1 0 0 0 0 0 1 0 0 0 0 0 0 0 0 0 0 0 0 0 1 0 2 0 2 0 0 0 0 0 1 1 0 1 0 1 0 0 0 0 1 0 1 0 0 0 0 0 0 1 0 2 1 4 1 1 0 2 0 3 1 0 0 0 0 0 0-1 0-1 0-2 0h0c0 0 2 1 2 1 0 0 0 0 0 0 2 0 4 1 5 1 1 1 3 2 5 2 2 0 3 0 4 1 0 0 0 0 0 0-1 0-2 0-2 0h-1c0 0 2 1 3 1 0 0 0 0 0 0 2 0 3 1 5 1 1 1 3 2 5 2 1 0 2 0 3 1 0 0 0 0 0 0 0 0-1 0-2 0h0c0 0 2 1 3 1 0 0 0 0 0 0 2 0 3 0 4 1 2 1 3 1 6 1 1 0 2 1 3 2 0 0 0 0 0 0-1 0-1 0-2 0h0c0 0 2 0 2 0 0 1 0 1 0 1 2 0 4 0 5 1 1 1 3 1 5 1 2 0 3 1 4 2 0 0 0 0 0 0-1 0-2 0-2 0h0c0 0 1 0 2 0 0 0 0 0 0 1 2 0 3 0 5 1 1 0 3 1 5 1 1 0 2 1 3 1 0 1 0 1 0 1 0 0-1 0-2 0h0c0 0 2 0 3 0 0 0 0 0 0 0 2 0 3 1 4 2 1 0 2 0 2 0-50 12-64 26-76 36-62 54-121 168-79 297 25 77 79 132 129 167 0 1 0 2 0 3 0 0 0 0 0-1l0 0c0 0 0 3 0 3 1 2 1 4 2 6 0 2 0 3 1 5 0 2 1 4 1 5 0 0-1-1-1-2l-1 0c0 0 2 2 2 3 0 0 0 1 1 1 0 3 1 5 3 7 0 1 1 1 1 2 0 0 0 0 0 0 1 1 1 2 1 3 0 0 0 0 0 0l0 0c0 0 0 0 0 1 0 0 0 0 1 0 1 2 2 3 4 4-12 4-28 9-49 17-3 1-6 3-8 4 0 0-1 1-1 1-2 1-4 3-6 5 0 1 0 1-1 2-1 2-2 3-3 5-1 0-1 2-1 3-1 1-1 2-2 3 0 2 0 3-1 4 0 1 0 2 0 3-1 2-1 3-1 5 0 0 0 0 0 1 0 2 0 3 1 4 0 0 0 1 0 1 0 1 1 2 1 3-31 27-66 51-96 82 44 20 51 28 77 68 6 9 13 17 21 23-12 20-24 39-36 58 31 11 59 25 90 35 34 12 50 25 78 47 11-21 19-42 27-64 1 1 1 1 2 1 1-2 2-5 3-8 2 1 5 3 9 3l-8-6c0 0 0 0 0 0 9 3 20-6 25-16l-4-3c1-2 2-4 3-6 1-1 1-2 1-2 0-1 1-1 1-1 4 2 8 4 13 6m-149-346l0 0c0 0 0 0 1 1-9-10-17-21-24-33 8 9 16 18 23 25 1 3 1 5 1 8 0 0 0-1-1-1l0 0z m-42 273l0 0c0 0 0 0 0 0 0 0 0 0 0 0l0 0z m43 45c0 1 0 1 0 1 0 0 0 0 0-1l0 0z m8 2c0 0 1-1 1-1 0 0-1 1-1 1l0 0z m492-46c-1 2-1 3-1 4-2-6-3-10-4-12-2-2-5-8-8-14-2-2-4-5-6-8 8 11 12 17 19 30l0 0z m-101 34l0 0c-1 0-1 1-2 1 1 0 1-1 2-1l0 0z m-5 6l0-2c-1-2-1-1-1-3 0 2 1 4 1 5l0 0z m-5-804c2 0 3 0 4 1 0 0-1 0-1 0h0c0 0-1 0-1 0-1 0-2 0-2 0 0-1 0-1 0-1 0 0 0 0 0 0l0 0z m-351 552c-2 0-5 1-9 2 0-1 0-1-1-1l2 0c0 0-2 0-3-1 0 0-1-1-2-1-2-2-4-5-5-7l1 0c0 0-1-1-2-2-2-4-3-7-4-10l1 1c0 0-1-2-2-4 9 6 19 11 27 16-1 2-2 5-3 7l0 0z m15-13c-5-4-11-8-17-13 0 0 0 0 0 0-7-6-15-12-22-20 0 0 0-1 0-1 0 0 0 0 0 0 0 0 0 0 0 0 0-1 0-2 0-3 0 0 0 0 0-1 0-1 0-2 0-3 8 7 16 14 23 19 1 1 2 1 2 2 3 2 5 4 8 5 0 0 0 1 0 1l0 0c7 4 13 8 19 12-5 1-9 1-13 2l0 0z m29 297l0 0c0-1 1-2 1-2 0 0-1 1-1 2l0 0z m18-302c-9-12-19-29-30-58 13 28 26 46 39 57-3 0-6 1-9 1l0 0z m31 298c0 0 0 0 0 0-1 2-2 4-3 6l-7-4c1-1 2-2 3-2 0 0 1 0 1 0 1-1 1-1 2-1 0 0 1-1 1-1 0 0 0 0 1 0-4-1 3-1-1-3h0c0 0 0 0 0 0 1 0 0 0 0 0 1 0 2 0 3 1 1 0 2 0 2 1 0 1-1 2-2 3l0 0z m-5-1c0-1 0-1 0-1 0 0 0 0 0 0 0 0 0 0 0 1l0 0z m1-2c1 0 1-1 1-1 1 1 0 1-1 1l0 0z m71-298c15-20 33-54 43-114 0-1-1 70-26 115-6-1-12-1-17-1l0 0z m105 11c-1-1-3-1-4-1 7-7 15-16 21-29-5 13-11 23-17 30l0 0z m27-535c0 0 0 0 0 0 0 0 1-1 2-2 0 0-5 2-7 2-1 0-2 0-3 1-1-1-3-1-4-1 0 0 0 0 0 0 0 0 0 0 0 0-29-2-62-4-101-4-75 0-128 4-166 10 0 0-1 0-2 0-1 0-1 0-1 0 0 0-1 0-1 0-1 0-2 0-2-1-1 0-1 0-1-1 0 0 0 0 1 0l3 0c0 0-6-1-8-2-1 0-3-1-5-1-1 0-1 0-1 0-1 0-2 0-3-1 0 0 0 0 0-1 0 0 0 0 0 0 0 0 2 0 3 0 0 0-6-1-8-1-1-1-3-1-5-2 0 0 0 0-1 0-1 0-2 0-3-1 0 0 0 0 0 0 0 0 0 0 0 0 0 0 2 0 3 0 0 0-5-1-7-2-2-1-4-1-6-1 0 0 0 0 0 0-1 0-3-1-3-2 0 0 0 0-1 0 0 0 0 0 0 0 0 0 2 0 4 0 0 0-6-1-8-2-2-1-3-1-6-1 0 0 0 0 0 0-1 0-2-1-3-2 0 0 0 0 0 0 0 0 0 0 0 0 0 0 2 0 3 0 0 0-6-1-8-2-1-1-3-1-5-1 0 0 0 0-1 0-1 0-2-1-3-1 0-1 0-1 0-1 0 0 0 0 0 0 0 0 2 0 3 0 0 0-5-1-7-2-1 0-2 0-3-1 64 5 160-11 332 7 31 3 60 6 87 9-2 0-4 1-5 1-2-1-3-1-6 0 0 1 0 1-1 1-1 0-1-1-2-1 0 0 0 0 0 0 1 0 1-1 2-1 0 0-5 1-8 2-1 0-3 0-5 1 0 0 0 0 0 0-1 0-1 0-2 0 0 0-1 0-2 0 0 0 0 0 0 0 1-1 2-1 2-2 0 0-5 2-7 2-2 0-4 1-6 2 0 0 0 0 0 0-1 0-1 0-2 0-1 0-1 0-2 0 0 0 0 0 0 0 0 0 2-1 3-2 0 0-6 2-8 2-1 0-3 0-5 1 0 1-1 1-1 1 0 0-1 0-2 0 0 0-1 0-1 0l0 0z m49 7c0 0-1 1-1 1-1 0-2-1-4-1 1 0 1 0 1 0 0 0 0 0 0 0 1 0 2-1 2-1 1 0 1 1 2 1 0 0 0 0 0 0l0 0z m-8 537c-1 0-1 1-1 1 0 0 0 0 0 0-1 1-3 2-4 2-1 1-3 2-4 4-1 1-2 1-3 1 0 0 0 0 0 0l0 0c0 0 0 0 0 0 0 0 0 0 0 0 1-1 1-1 2-2l0 0c0 0-1 1-1 1 0 0 0 0 0 0-1 0-2-1-3-1 0 0-1 0-1 0 0 0 1 0 1 0 0 0 0 0 1-1l0 1c4-2 8-4 13-6 0 0 0 0 0 0l0 0z m3-1c-1 1-2 2-3 2 0 0 0 0 0 0l0-1c0 0 0 0 1-1 1 0 2 0 3-1-1 0-1 1-1 1l0 0z m-29 2c-4-2-8-3-12-4 23-13 55-36 62-49-7 15-29 35-50 53l0 0z m272-476c0 1-1 2-2 3l1 0c0 0 0 1 0 1 0 1 0 1 0 2 0 1-1 2-1 3-1 1-2 2-4 2l0 3c0 0 0 0 0 1-1 0-1 1-1 1-1 2-2 3-3 4-1 1-1 2-2 2 0 1-1 2-2 2-1 0-1 0-1 0 0 0 0 1-1 2-1 2-2 3-3 4-2 1-3 2-4 4-1 1-2 1-3 2 0-1 0-1 0-1l0 0c0-1 1-1 1-2l0 0c0 0-1 1-1 2-1 0-1 0-1 1 0 0 0 0 0 0-1 1-2 1-3 2-2 1-3 2-5 4 0 1-1 2-2 2-1 0-1 0-1 0l1-1c0 0 0-1 1-2l0 0c0 0-2 2-2 2 0 0 0 0 0 1-1 0-1 0-1 0-1 1-2 2-3 3-1 0-1 0-2 1 0 0 0 0 0 0 0 0-1 1-2 1 0 1-1 2-2 2l0 0c0 0 0 0 0 0-1 0-1 0-1 0 0 0 0 0 0 0 0 0 0 0-1 2-1 2-3 3-4 4l0 0c-1 2-3 3-4 6 0 1-1 2-2 2l0 0c0-1 0-2 1-3l0 0c0 0-1 2-1 3-1 0-1 0-1 0 0 0 0 0 0 0-1 2-2 3-3 4 0 1-1 2-2 4 0 1-1 2-2 2 0 0-1 1-1 3-1 2-2 3-2 4-1 2-2 3-2 4 0 1-1 2-2 3-1 0-1 1-1 3 0 1-1 2-1 4-2-5-3-9-4-14-1 0-1 1-1 1-13-42-33-77-53-96-14-15-35-35-104-48 1 0 1 0 2-1 0 0 0 0 0 0 1 0 2 0 3 0l2 0c2 0 3 0 5-1 0 0 1 0 1 0 1 0 1 0 2 0 0 0 0 1 0 1 0 0-1 0-1 0l-1 0c0 0 2 0 3 0h0c0 0 0 0 0 0 1 0 2 0 3 0 0 0 1 0 1 0 1 0 2 0 2 0 1 0 1 0 1 0 1-1 2-1 3-1 0 0 0 0 0 0 1 0 1 0 2 0 0 0 1 0 2 0 0 0 0 0 0 0-1 1-1 1-2 1l0 0c0 0 2 0 2 0 0 0 0 0 1 0 0 0 1 0 2 0 0 0 1 0 2 0 0 0 1 0 2 0 0 0 1 0 1 0 1 0 1 0 2 0 0-1 0-1 0-1 1 0 1 0 2 0 0 0 1 0 2 1 0 0 0 0 0 0-1 0-1 0-2 1l0 0c0 0 2 0 3-1 0 0 0 0 0 0 0 0 1 0 2 0 1 0 1 0 2 0 1 0 2 1 3 1 0 0 0-1 1-1 0 0 0 0 0 0 1 0 1 0 2 0 0 0 1 0 1 0 1 0 1 0 2 0 0 1 0 1 0 1 0 0-1 0-2 0l0 0c0 0 2 0 3 0 0 0 0 0 0 0 1 0 1 0 2 0 1 0 2 0 2 0 1 0 2 0 3 0 1 0 2 0 3 0 1 0 1 0 2 0 0 0 1 0 2 0 0 0 0 1 0 1-1 0-1 0-2 0l0 0c0 0 2 0 2 0 0 0 0 0 1 0 0 0 0 0 0 0 0 0 1 0 1 0 1 0 2 0 3 0 1 0 2 1 3 1 1 0 2-1 3-1 0 0 0 0 1 0 0 0 1 0 2 1 0 0 0 0 0 0-1 0-1 0-2 1l0 0c0 0 2 0 3-1 0 0 0 0 0 0 0 0 1 0 1 0 1 0 2 0 3 1 1 0 2 0 3 0 1 0 2 0 3 0 0 0 0 0 1 0 1 0 1 0 2 0 0 0 0 1 0 1 0 0-1 0-2 0l0 0c0 0 2 0 3 0 0 0 0 0 0 0 0 0 1 0 1 0 1 0 2 0 3 0 2 1 3 1 4 1 1 0 1 0 2 0 0-1 1-1 1-1 1 0 2 1 2 1 0 0 1 0 1 0-1 1-2 1-2 1l-1 0c0 0 2 0 3 0 0 0 0 0 0 0 1 0 1 0 1 0 2 0 3 0 4 0 1 1 2 1 3 1 1 0 2 0 3 0 0 0 0 0 0 0 1 0 2 0 3 0 0 0 0 0 0 1-1 0-1 0-2 0l0 0c0 0 2 0 2 0 0 0 0 0 1 0 0 0 0 0 0 0 0 0 0 0 0 0 2 0 3 0 4 1 1 0 2 0 4 0 0 0 1 0 1 0 1 0 1 0 1 0 1 0 2 0 3 1 0 0 0 0 0 0-1 0-1 1-2 1h0c0 0 2 0 2 0 0 0 0 0 0 0 1 0 1 0 1 0 2 0 3 0 4 0 1 1 2 1 4 1 1 0 1 0 2 0 0 0 0 0 0 0 1 0 2 0 3 1 0 0 0 0 0 0-1 0-1 0-2 1l0 0c0 0 2 0 2 0 0 0 0 0 0 0 1 0 1 0 1 0 1 0 3 0 4 1 1 0 3 0 4 0 1 0 1 0 1 0 1 0 1 0 1 0 0 0 0 0 1 0 0 0 1 0 1 0 0 0 1 0 1 0 1 0 2 0 3 0 0 1 0 1 0 1-1 0-2 0-3 0l0 1c-1 0-1 0-2 0l0 0c0 0 2 0 2 0 2 0 3 0 4 1 0 0 0 0 0 0 0 0 1 0 1 0 1 1 3 1 5 1 0 0 1 0 1 0 1 0 2 1 3 1 0 0 0 0 0 1-1 0-2 0-3 0h0c0 0 2 0 3 0 0 0 0 0 0 0 0 0 0 0 0 0 2 0 3 1 4 1 2 1 3 2 6 2 1 0 2 0 3 1 0 0 0 0 0 0-1 0-1 0-2 0h0c0 0 2 1 2 1 0 0 0 0 0 0 0 0 0 0 0 0 2 0 3 1 4 1 1 1 2 1 3 2 2 0 3 1 3 2 0 0 1 0 2 0 2 1 3 1 5 2 1 1 3 2 5 2 1 1 2 1 2 2 0 0 0 0 0 1 0-1-1-1-2-1l0 0c0 0 2 1 3 1 0 0 0 0 0 0 0 0 0 0 0 0 1 1 2 2 3 3 1 1 2 2 4 2 1 1 2 2 2 3 0 0-1-1-2-1l0 0c0 0 2 1 2 1 0 0 0 1 1 1 0 0 0 0 0 0 0 1 1 2 2 3 0 1 1 2 2 3 1 1 1 2 1 3-1-1-1-1-1-1l0-1 1 2c0 0 0 0 0 1 0 0 0 0 0 0 0 1 0 2 0 3l0 1 0 0z" horiz-adv-x="1000" />
<glyph glyph-name="camera" unicode="&#xe80b;" d="m0 6l0 469q0 35 23 61t55 31l135 23 43 108q12 27 35 43t53 15l312 0q30 0 53-15t35-43l43-108 135-23q33-6 56-31t22-61l0-469q0-39-27-66t-67-28l-812 0q-39 0-67 28t-27 66z m63 0q0-13 8-22t23-9l812 0q14 0 23 9t8 22l0 469q0 27-25 31l-170 28-56 140q-8 20-30 20l-312 0q-22 0-30-20l-56-140-170-28q-25-4-25-31l0-469z m187 282q0 103 73 176t177 74 177-74 73-176-73-177-177-73-177 73-73 177z m63-15q5-77 65-128t137-45 128 65 45 137-66 128-137 45-128-65-44-137z m62 15q0 50 36 87t89 38q16 0 16-16t-16-16q-39 0-66-27t-28-66q0-16-15-16t-16 16z" horiz-adv-x="1000" />
<glyph glyph-name="cog" unicode="&#xe80c;" d="m0 307l0 86q0 21 15 39t36 22l96 19q5 20 15 41l-53 80q-13 20-10 42t18 38l59 59q19 19 45 19 19 0 35-11l80-53q21 10 41 16l20 95q3 22 21 36t39 15l86 0q21 0 39-15t22-36l19-95q20-6 41-16l80 53q16 11 35 11 26 0 45-19l59-59q17-15 19-38t-11-42l-53-80q10-22 16-41l95-20q22-3 36-21t15-39l0-86q0-22-15-39t-36-22l-95-19q-6-20-16-41l53-80q13-20 11-42t-19-38l-59-59q-19-19-45-19-19 0-35 11l-80 53q-21-10-41-16l-19-95q-4-22-22-36t-39-15l-86 0q-21 0-39 14t-21 37l-20 95q-20 6-41 16l-80-53q-16-11-35-11-26 0-45 19l-59 59q-15 15-18 38t10 42l53 80q-10 21-15 41l-96 19q-22 4-36 22t-15 39z m63 0l95-19q35-6 47-40 6-17 14-35 15-31-4-60l-55-82 61-61 82 55q15 10 33 10 16 0 27-6 18-8 35-14 34-12 40-47l19-96 86 0 20 96q5 35 39 47 17 6 35 14 11 6 27 6 18 0 33-10l82-55 61 61-55 82q-19 29-4 60 8 18 14 35 12 34 47 40l95 19 0 86-95 20q-35 5-47 39-6 17-14 35-15 31 4 60l55 82-61 61-82-55q-15-10-33-10-16 0-27 6-18 8-35 14-34 12-39 47l-20 95-86 0-19-95q-6-35-40-47-17-6-35-14-11-6-27-6-18 0-33 10l-82 55-61-61 55-82q19-29 4-60-8-18-14-35-12-34-47-39l-95-20 0-86z m218 43q0 90 65 154t154 65 154-65 65-154-65-154-154-65-154 65-65 154z m28 0q0-80 55-136t136-55 136 55 55 136-55 136-136 55-136-55-55-136z m66 0q0 53 36 89t89 36 89-37 36-89-36-88-89-36-89 36-36 89z m31 0q0-39 28-66t66-28 66 28 28 66-28 66-66 28-66-28-28-66z" horiz-adv-x="1000" />
<glyph glyph-name="plus" unicode="&#xe80d;" d="m550 400q30 0 30-50t-30-50l-210 0 0-210q0-30-50-30t-50 30l0 210-210 0q-30 0-30 50t30 50l210 0 0 210q0 30 50 30t50-30l0-210 210 0z" horiz-adv-x="580" />
<glyph glyph-name="ok-circle" unicode="&#xe811;" d="m500 850q136 0 251-67t182-182 67-251-67-251-182-182-251-67-251 67-182 182-67 251 67 251 182 182 251 67z m-240-447l-54-53q71-71 129-133t81-90l22-26q8 13 22 36t57 85 83 119 95 119 99 104q-18 35-36 35-10-6-32-22t-113-97-211-201z" horiz-adv-x="1000" />
<glyph glyph-name="cancel-circle" unicode="&#xe813;" d="m1000 349q0-136-67-251t-182-182-251-67-251 67-182 182-67 251 67 251 182 182 251 67 251-67 182-182 67-251z m-339-232l71 71-161 161 161 161-71 71-161-161-161 161-71-71 161-161-161-161 71-71 161 161z" horiz-adv-x="1000" />
<glyph glyph-name="attention" unicode="&#xe814;" d="m571 83v106q0 8-5 13t-12 5h-108q-7 0-12-5t-5-13v-106q0-8 5-13t12-6h108q7 0 12 6t5 13z m-1 208l10 257q0 6-5 10-7 6-14 6h-122q-7 0-14-6-5-4-5-12l9-255q0-5 6-9t13-3h103q8 0 13 3t6 9z m-7 522l428-786q20-35-1-70-10-17-26-26t-35-10h-858q-18 0-35 10t-26 26q-21 35-1 70l429 786q9 17 26 27t36 10 36-10 27-27z" horiz-adv-x="1000" />
<glyph glyph-name="mobile" unicode="&#xe818;" d="m0-56l0 812q0 39 27 67t67 27l500 0q39 0 66-27t28-67l0-812q0-39-28-67t-66-27l-500 0q-39 0-67 27t-27 67z m63 0q0-14 8-23t23-9l500 0q13 0 22 9t9 23l0 62-562 0 0-62z m0 94l562 0 0 624-562 0 0-624z m0 656l562 0 0 62q0 14-9 23t-22 8l-500 0q-14 0-23-8t-8-23l0-62z m218 47q0 15 16 15l94 0q15 0 15-15t-15-16l-94 0q-16 0-16 16z m32-782q0 16 15 16l31 0q16 0 16-16t-16-15l-31 0q-15 0-15 15z" horiz-adv-x="687" />
<glyph glyph-name="lock" unicode="&#xe819;" d="m0 131l0 219q0 39 27 66t67 28l0 125q0 117 82 199t199 82 199-82 82-199l0-125q39 0 67-28t27-66l0-219q0-117-82-199t-199-82l-188 0q-117 0-199 82t-82 199z m63 0q0-90 64-154t154-65l188 0q90 0 154 65t65 154l0 219q0 14-9 22t-23 9l-562 0q-14 0-23-9t-8-22l0-219z m93 313l63 0 0 125q0 64 46 110t110 46 110-46 46-110l0-125 63 0 0 125q0 90-65 154t-154 64-154-64-65-154l0-125z m94 0l250 0 0 125q0 52-36 89t-89 36-89-36-36-89l0-125z m63-250q0 25 18 44t44 18 44-18 19-44q0-28-22-84-14-41-41-41t-41 41q-21 56-21 84z" horiz-adv-x="750" />
<glyph glyph-name="help-circled" unicode="&#xe81a;" d="m0 350q0 95 37 182t100 149 149 100 183 37q95 0 182-37t149-100 100-149 37-182q0-95-37-182t-100-150-149-100-182-37q-96 0-183 37t-149 100-100 150-37 182z m117 0q0-71 28-137t75-112 112-75 137-28 136 28 112 75 75 112 28 137q0 95-47 176t-128 128-176 47-177-47-128-128-47-176z m216 176l31-101q45 29 93 29 49 0 49-23 0-4-2-8t-3-5-6-5-7-5-8-4l-8-4-40-21q-22-12-28-25t-6-37v-37h117v16q0 7 0 10t3 6 6 5q1 1 11 5t17 8 19 11 18 13q19 17 29 37t11 55q0 49-42 83t-106 34q-83 0-148-37z m48-334q0-32 21-49t55-17q33 0 54 17t20 49-20 49-54 18q-35 0-55-18t-21-49z" horiz-adv-x="937.5" />
</font>
</defs>
</svg>
